<svg xmlns="http://www.w3.org/2000/svg" width="101" height="60" viewBox="0 0 101 60">
    <path fill="#FFF" fill-rule="evenodd" d="M62.278 36.244v21.319s15.116-4.742 18.74-5.747l.142-.039V36.548l9.139-2.74v15.227c1.937-.553 3.12-1.107 4.921-1.66l.56-.167v-21.32l2.132-.609v23.452c-5.685 1.624-10.889 3.249-16.467 4.873l-2.111.61-17.056 5.481-1.523.305-30.762-13.4v-2.704c3.716-2.798 6.127-7.19 6.127-12.097 0-.794-.07-1.555-.195-2.298l-.08-.443 23.31 9.988 1.6-1.28 1.523-1.522zm14.618 1.523v6.396c-3.016.822-6.277 1.891-9.564 2.985l-1.096.365v-6.396c3.655-1.218 7.31-2.132 10.66-3.35zM22.754 10.28c1.102 6.588 5.79 12.942 6.96 14.444 1.707 2.725 2.405 4.772 2.405 7.035 0 6.198-5.158 11.24-11.498 11.24C14.28 43 9.12 38.043 9.12 31.949c0-.443.036-.874.121-1.435l.047-.292.497-2.991c1.96-8.45 8.027-13.844 12.97-16.95zM47.657 0C62.8 6.266 78.164 12.755 93.37 19.084l7.587 3.149-3.045 1.219c-6.7-2.742-12.792-5.178-19.188-7.919l-1.628 1.63c-2.644 2.65-4.97 5.02-7.509 7.812-3.299 3.3-6.388 6.599-9.617 9.898l-1.957 1.98-22.664-9.654c-.477-1.407-1.158-2.776-2.014-4.185l-.33-.53c.005 0-1.473-1.854-3.019-4.511C35.965 11.982 41.906 5.991 47.657 0zM5.816 15.636c.311 1.93 1.285 3.801 2.057 5.05a27.847 27.847 0 0 0-2.465 8.296l-.077.62.011-.003c-.029.172-.045.34-.069.508-.123.01-.241.038-.367.038A4.909 4.909 0 0 1 0 25.245v-.072c.014-.697.286-5.87 5.816-9.537z"/>
</svg>
